<?xml version="1.0" encoding="UTF-8" standalone="no"?>
<!-- Created with Inkscape (http://www.inkscape.org/) -->

<svg
   width="60.67778mm"
   height="66.322212mm"
   viewBox="0 0 60.67778 66.322212"
   version="1.1"
   id="svg1"
   xml:space="preserve"
   xmlns="http://www.w3.org/2000/svg"
   xmlns:svg="http://www.w3.org/2000/svg">
   
   <defs
   id="defs1" />
   <g
   id="layer1"
   style="display:inline"
   transform="translate(-119.67987,-177.97639)">
      
   <g
   id="g3"
   transform="translate(44.979167,62.441667)"><path
     style="fill:#fdfdfd"
     d="m 74.700699,148.69583 v -33.16111 h 30.338891 30.33889 v 33.16111 33.16111 H 105.03959 74.700699 Z m 34.238141,29.16501 c 2.26954,-1.32473 5.23769,-3.0546 6.59589,-3.84416 1.35819,-0.78955 5.86318,-3.4139 10.01109,-5.83187 l 7.54166,-4.39633 -0.0451,-14.27171 -0.0451,-14.27171 -14.02292,-8.17929 c -7.71261,-4.49861 -14.06616,-8.17937 -14.11901,-8.17948 -0.0529,-1e-4 -6.402857,3.67787 -14.111115,8.17325 l -14.015014,8.17344 -0.04513,14.27875 -0.04513,14.27875 14.068042,8.22398 c 7.737424,4.52319 14.076457,8.23096 14.086747,8.23948 0.0103,0.009 1.87559,-1.06837 4.14513,-2.3931 z"
     id="path9" /><path
     style="fill:#8ffadb"
     d="m 90.706961,172.01446 -14.068042,-8.22398 0.04513,-14.27875 0.04513,-14.27875 14.015014,-8.17344 c 7.708258,-4.49538 14.058257,-8.17335 14.111117,-8.17325 0.0529,1.1e-4 6.4064,3.68087 14.11901,8.17948 l 14.02292,8.17929 0.0451,14.27171 0.0451,14.27171 -7.54166,4.39633 c -4.14791,2.41797 -8.6529,5.04232 -10.01109,5.83187 -1.3582,0.78956 -4.32635,2.51943 -6.59589,3.84416 -2.26954,1.32473 -4.13485,2.40163 -4.14513,2.3931 -0.0103,-0.009 -6.349327,-3.71629 -14.086751,-8.23948 z m 16.130439,2.14224 c 1.91541,-1.12727 4.02982,-2.36142 7.81538,-4.56172 0.97014,-0.56388 4.34358,-2.53333 7.49653,-4.37656 3.15295,-1.84323 5.95042,-3.47721 6.21659,-3.63106 l 0.48396,-0.27972 0.001,-11.75015 10e-4,-11.75016 -1.36702,-0.80059 c -0.75186,-0.44032 -2.47826,-1.45631 -3.83646,-2.25774 -1.35819,-0.80143 -3.38225,-1.98638 -4.49791,-2.63322 -1.11566,-0.64685 -4.60816,-2.68469 -7.76111,-4.52853 -3.15295,-1.84385 -5.91124,-3.44745 -6.12952,-3.56356 -0.45555,-0.24231 -0.40562,-0.26261 -2.77812,1.12952 -0.87313,0.51233 -3.452814,2.02057 -5.732641,3.35165 -5.364351,3.13197 -4.880395,2.8499 -7.320138,4.26643 -1.164167,0.67592 -3.565261,2.08541 -5.335764,3.1322 l -3.219097,1.90326 0.0011,11.75044 0.0011,11.75045 0.483954,0.28225 c 0.916581,0.53456 8.776968,5.1315 10.361732,6.05978 0.873125,0.51143 2.420938,1.41527 3.439583,2.00853 1.018646,0.59326 3.598334,2.10582 5.732641,3.36125 2.1343,1.25542 3.89582,2.28901 3.91448,2.29685 0.0187,0.008 0.93147,-0.51398 2.02847,-1.1596 z m -3.82725,-12.45219 c -0.0429,-0.12127 -0.74836,-2.16517 -1.56758,-4.54201 -2.913855,-8.45403 -4.546672,-13.16865 -5.25364,-15.16945 -1.097937,-3.10728 -1.144081,-2.84717 0.494225,-2.78594 l 1.389071,0.0519 1.086949,3.175 c 0.597822,1.74625 1.839095,5.35781 2.758385,8.02569 0.91928,2.66788 1.84504,5.36663 2.05724,5.99722 0.62095,1.84532 0.74351,2.11667 0.95601,2.11667 0.11067,0 1.0684,-2.55984 2.12831,-5.68854 1.0599,-3.1287 2.53624,-7.47448 3.28074,-9.65729 l 1.35365,-3.96875 1.34734,-0.0515 c 0.74104,-0.0283 1.34735,0.0205 1.34735,0.10851 0,0.088 -0.60292,1.89713 -1.33981,4.02027 -0.73689,2.12313 -1.72361,4.97149 -2.19269,6.32968 -0.46909,1.35819 -1.42227,4.09663 -2.11817,6.08542 -0.69591,1.98878 -1.46262,4.19144 -1.70381,4.89479 l -0.43851,1.27882 h -1.75349 c -1.24355,0 -1.77619,-0.0641 -1.83157,-0.22049 z"
     id="path8" /><path
     style="fill:#73c9b5"
     d="m 128.67566,149.54245 c -0.0485,-6.56787 -0.0281,-11.88146 0.0454,-11.80798 0.0735,0.0735 0.11312,5.44719 0.0882,11.94158 l -0.0454,11.80798 z"
     id="path7" /><path
     style="fill:#5ca297"
     d="m 80.957618,149.48958 c 1.9e-5,-6.49993 0.02203,-9.13336 0.04892,-5.85207 0.02689,3.28129 0.02687,8.59941 -3.4e-5,11.81805 -0.0269,3.21864 -0.0489,0.53395 -0.04888,-5.96598 z m 15.046701,-10.44813 c 0.414874,-0.0373 1.049874,-0.0367 1.411111,0.001 0.361238,0.0379 0.0218,0.0684 -0.754315,0.0677 -0.776111,-6.4e-4 -1.071669,-0.0316 -0.656796,-0.0689 z m 16.404171,0 c 0.41487,-0.0373 1.04987,-0.0367 1.41111,0.001 0.36123,0.0379 0.0218,0.0684 -0.75432,0.0677 -0.77611,-6.4e-4 -1.07167,-0.0316 -0.65679,-0.0689 z"
     id="path6" /><path
     style="fill:#213142"
     d="m 103.93716,161.97135 c 0.50932,-0.0356 1.34276,-0.0356 1.85208,0 0.50932,0.0356 0.0926,0.0648 -0.92604,0.0648 -1.01865,0 -1.43537,-0.0292 -0.92604,-0.0648 z m -17.185231,-0.53134 c 2.990156,-0.0271 7.832031,-0.0271 10.759722,4e-5 2.927689,0.0271 0.4812,0.0493 -5.436647,0.0493 -5.917847,-2e-5 -8.313231,-0.0222 -5.323075,-0.0493 z m 25.576391,0 c 2.99015,-0.0271 7.83203,-0.0271 10.75972,4e-5 2.92769,0.0271 0.4812,0.0493 -5.43665,0.0493 -5.91784,-2e-5 -8.31323,-0.0222 -5.32307,-0.0493 z"
     id="path5" /><path
     style="fill:#111d32"
     d="m 128.58262,149.48958 c 2e-5,-6.49993 0.022,-9.13336 0.0489,-5.85207 0.0269,3.28129 0.0269,8.59941 -4e-5,11.81805 -0.0269,3.21864 -0.0489,0.53395 -0.0489,-5.96598 z M 81.756254,137.50292 c 0,-0.0442 0.575469,-0.41248 1.27882,-0.81834 2.981894,-1.72067 7.687689,-4.47095 8.422569,-4.92254 0.436562,-0.26827 1.150937,-0.68515 1.5875,-0.92639 0.436562,-0.24125 1.508125,-0.85596 2.38125,-1.36603 0.873125,-0.51007 1.825625,-1.06578 2.116666,-1.2349 0.291042,-0.16912 1.243542,-0.72644 2.116667,-1.23849 0.873124,-0.51205 2.397994,-1.40008 3.388584,-1.9734 l 1.80109,-1.04239 3.40239,1.97841 c 1.87131,1.08812 3.64051,2.11452 3.93155,2.28089 0.29104,0.16636 1.24354,0.71973 2.11666,1.2297 0.87313,0.50998 1.82563,1.0656 2.11667,1.23473 0.47006,0.27314 2.39951,1.40183 4.14514,2.42481 3.29377,1.93023 6.04136,3.53236 6.65868,3.88269 0.41231,0.23399 0.74965,0.45833 0.74965,0.49855 0,0.0402 -10.39812,0.0731 -23.10694,0.0731 -12.708821,0 -23.106946,-0.0362 -23.106946,-0.0804 z"
     id="path4" /><path
     style="fill:#0c182d"
     d="m 104.06945,174.63747 c -0.29104,-0.1734 -0.80698,-0.47418 -1.14653,-0.6684 -0.33955,-0.19422 -1.05392,-0.61343 -1.5875,-0.93157 -0.9196,-0.54832 -1.355212,-0.80113 -2.68993,-1.56116 -0.632671,-0.36025 -3.796777,-2.21901 -6.129514,-3.60078 -0.824618,-0.48845 -1.757274,-1.03496 -2.072569,-1.21447 -0.957099,-0.5449 -1.648313,-0.94489 -3.307292,-1.91387 -0.873125,-0.50998 -1.845468,-1.07579 -2.160764,-1.25736 -0.71429,-0.41136 -1.488279,-0.85884 -2.513541,-1.45322 l -0.79375,-0.46017 10.62743,-0.002 c 9.32996,-0.002 10.62743,0.0302 10.62743,0.26246 0,0.21915 0.33318,0.26459 1.94028,0.26459 1.6071,0 1.94028,-0.0454 1.94028,-0.26459 0,-0.23227 1.29793,-0.26445 10.62743,-0.26349 8.97576,9.1e-4 10.55889,0.0378 10.18645,0.23702 -0.24253,0.12977 -0.87753,0.49755 -1.41111,0.8173 -0.94097,0.56389 -1.47098,0.87171 -2.71054,1.57422 -0.32663,0.18511 -1.12849,0.66136 -1.78191,1.05833 -0.65343,0.39697 -1.21687,0.72176 -1.2521,0.72176 -0.0623,0 -1.2526,0.69569 -6.33809,3.70457 -1.35819,0.80359 -2.72741,1.60849 -3.0427,1.78867 -0.3153,0.18018 -0.85108,0.48634 -1.19063,0.68037 -1.54528,0.88302 -1.82155,1.04344 -2.73403,1.5875 -2.37233,1.41452 -2.26571,1.38362 -3.0868,0.89442 z M 81.050699,149.58114 v -11.8147 l 0.396875,-0.0958 c 0.218281,-0.0527 10.874374,-0.074 23.680206,-0.0475 l 23.28333,0.0483 0.0453,11.86215 0.0453,11.86215 H 117.749 106.9962 l 1.14917,-3.30729 c 0.63205,-1.81901 1.29719,-3.74385 1.4781,-4.27743 0.3224,-0.95089 1.99884,-5.77343 3.95497,-11.37708 0.54185,-1.55223 0.9854,-2.96422 0.98566,-3.13777 4.4e-4,-0.28263 -0.15755,-0.31024 -1.51443,-0.26459 l -1.51493,0.051 -0.83505,2.46944 c -5.91588,17.49465 -5.62685,16.66875 -5.83331,16.66875 -0.0717,0 -0.25394,-0.41672 -0.40491,-0.92604 -0.15098,-0.50932 -0.87911,-2.67229 -1.61808,-4.8066 -1.53385,-4.4301 -2.55774,-7.39874 -3.771892,-10.93611 l -0.847603,-2.46944 -1.640758,-0.051 c -1.282239,-0.0399 -1.621716,-0.001 -1.55361,0.17638 0.04793,0.12507 0.533708,1.53708 1.079503,3.13781 0.545795,1.60073 1.314213,3.82323 1.707596,4.93889 0.722136,2.04803 2.563674,7.38193 3.166724,9.17222 0.17973,0.53358 0.64129,1.86311 1.02569,2.95452 l 0.6989,1.98437 H 91.879318 81.050699 Z"
     id="path3" /></g></g>
</svg>
