<?xml version="1.0" standalone="no"?>
<!DOCTYPE svg PUBLIC "-//W3C//DTD SVG 20010904//EN"
 "http://www.w3.org/TR/2001/REC-SVG-20010904/DTD/svg10.dtd">
<svg version="1.0" xmlns="http://www.w3.org/2000/svg"
 width="300.000000pt" height="321.000000pt" viewBox="0 0 300.000000 321.000000"
 preserveAspectRatio="xMidYMid meet">
<metadata>
Created by potrace 1.10, written by Peter Selinger 2001-2011
</metadata>
<g transform="translate(0.000000,321.000000) scale(0.100000,-0.100000)"
fill="#000000" stroke="none">
<path d="M1475 3136 c-50 -29 -180 -105 -400 -233 -417 -244 -856 -500 -923
-538 l-72 -42 0 -734 0 -734 27 -15 c16 -9 82 -48 148 -87 66 -39 165 -97 220
-128 55 -32 114 -66 130 -75 44 -26 340 -199 580 -340 116 -68 230 -134 255
-148 25 -14 54 -31 64 -38 12 -8 24 -10 30 -5 6 5 52 33 101 61 50 29 158 92
240 140 83 48 263 153 400 233 138 81 350 204 472 274 l222 128 -2 734 -2 734
-85 50 c-47 27 -110 62 -140 79 -30 17 -59 34 -65 38 -8 7 -210 125 -435 255
-111 64 -356 207 -562 328 -81 48 -151 87 -155 87 -5 -1 -26 -11 -48 -24z
m220 -94 c157 -90 221 -127 385 -223 146 -86 171 -100 225 -130 22 -12 42 -25
45 -29 5 -6 62 -39 165 -94 22 -11 42 -24 43 -28 2 -5 8 -8 13 -8 5 0 33 -16
63 -35 30 -19 57 -35 60 -35 12 0 239 -141 248 -155 4 -5 7 -330 8 -721 0
-562 -2 -713 -12 -722 -11 -9 -86 -53 -228 -135 -19 -11 -47 -27 -61 -36 -29
-17 -223 -131 -276 -162 -18 -11 -50 -29 -70 -41 -21 -12 -56 -31 -79 -44 -22
-12 -61 -34 -85 -49 -24 -15 -113 -68 -199 -118 -85 -49 -212 -123 -282 -163
-70 -41 -133 -74 -140 -74 -7 0 -30 11 -50 25 -20 14 -39 25 -42 25 -3 0 -30
16 -60 35 -30 19 -57 35 -60 35 -3 0 -30 16 -60 35 -30 19 -60 35 -66 35 -5 0
-10 3 -10 8 0 4 -10 12 -23 18 -38 18 -128 70 -222 126 -49 30 -124 73 -165
97 -41 23 -88 51 -105 61 -16 10 -57 34 -90 53 -215 121 -452 262 -460 274 -7
9 -10 256 -9 721 1 389 3 710 3 714 1 10 157 107 332 206 19 11 75 43 124 72
50 29 115 66 145 83 30 17 62 35 70 42 8 7 41 26 72 43 32 17 188 108 348 202
159 94 300 174 312 179 26 10 19 13 193 -87z"/>
<path d="M1505 2901 c-8 -8 -388 -231 -615 -361 -36 -21 -183 -107 -328 -192
l-262 -154 -1 -605 0 -604 173 -102 c151 -89 242 -143 412 -242 23 -13 68 -39
101 -58 33 -20 74 -43 90 -53 17 -9 124 -72 239 -140 189 -110 212 -121 230
-110 22 14 220 131 271 160 17 9 125 72 240 140 216 126 254 149 533 310 l162
95 0 602 0 602 -112 67 c-113 67 -496 292 -553 324 -37 21 -416 243 -502 294
-69 40 -66 39 -78 27z m83 -73 c31 -17 86 -48 121 -70 34 -21 65 -38 67 -38 2
0 47 -26 101 -58 88 -53 170 -101 258 -152 134 -78 285 -166 360 -210 50 -29
108 -63 130 -76 22 -13 50 -32 63 -44 l22 -21 0 -574 c0 -569 0 -574 -21 -588
-15 -11 -17 -16 -7 -20 7 -3 0 -6 -15 -6 -16 -1 -47 -14 -70 -29 -23 -15 -87
-54 -142 -87 -55 -32 -147 -86 -205 -120 -58 -34 -145 -85 -195 -114 -49 -28
-97 -56 -105 -61 -8 -5 -91 -54 -185 -108 -93 -54 -184 -107 -201 -117 -37
-22 -62 -17 -129 27 -27 17 -52 32 -55 33 -3 0 -32 16 -65 36 -55 32 -137 80
-390 229 -101 59 -91 53 -310 180 -88 51 -171 101 -184 111 -13 11 -35 19 -50
19 -20 0 -23 2 -11 10 9 6 10 10 3 10 -6 0 -19 7 -27 16 -14 14 -16 80 -16
582 0 312 4 572 8 577 10 14 72 54 187 120 55 32 133 78 172 102 40 23 75 43
79 43 3 0 25 14 49 30 24 17 46 30 49 30 2 0 40 22 84 49 44 27 104 62 133 79
30 16 110 62 179 102 69 41 143 83 165 94 22 12 46 27 53 34 20 18 38 15 100
-20z"/>
<path d="M1022 2144 c-13 -9 -22 -26 -22 -40 0 -22 36 -136 86 -274 9 -25 58
-166 109 -315 51 -148 103 -297 115 -330 35 -97 60 -177 60 -191 0 -8 8 -14
18 -14 12 0 13 -3 4 -8 -9 -6 -6 -14 13 -32 45 -42 209 -35 250 10 14 15 15
20 4 20 -10 0 -10 3 -3 8 7 4 16 23 22 42 12 41 124 361 142 405 6 17 13 37
15 45 2 8 31 94 65 190 34 96 72 207 85 245 13 39 33 96 44 127 26 71 26 83 1
108 -15 15 -33 20 -77 20 -75 0 -96 -6 -113 -33 -7 -12 -71 -191 -141 -397
-167 -492 -162 -479 -174 -481 -5 0 -54 129 -108 288 -55 158 -103 297 -108
308 -4 11 -27 76 -50 145 -53 160 -62 170 -149 170 -43 0 -73 -5 -88 -16z
m246 -287 c52 -149 128 -373 170 -497 43 -124 81 -227 86 -230 6 -3 29 54 52
125 24 72 99 296 168 499 70 202 126 370 126 372 0 2 34 4 75 4 41 0 75 -4 75
-9 0 -9 -102 -308 -180 -526 -47 -134 -176 -506 -200 -578 l-23 -67 -97 0 -97
0 -21 68 c-11 37 -100 294 -197 572 -97 278 -179 513 -182 523 -5 15 3 17 73
17 l79 0 93 -273z"/>
</g>
</svg>
