<?xml version="1.0" encoding="UTF-8" standalone="no"?>
<!-- Created with Inkscape (http://www.inkscape.org/) -->

<svg
   width="99.660789mm"
   height="107.17019mm"
   viewBox="0 0 99.660789 107.17019"
   version="1.1"
   id="svg1"
   xml:space="preserve"
   xmlns="http://www.w3.org/2000/svg"
   xmlns:svg="http://www.w3.org/2000/svg">
   
   <defs
   id="defs1" />
   <g
   id="layer1"
   style="display:inline"
   transform="translate(-237.23438,-34.7294)">
      <path
   style="fill:#64ffda;fill-opacity:1;stroke:none"
   d="m 286.5356,34.787207 c -3.80657,0.922505 -7.97516,4.518087 -11.37708,6.471052 -8.66953,4.976971 -17.3404,9.979691 -25.92917,15.094731 -2.80564,1.67091 -5.63465,3.30862 -8.46667,4.93441 -0.99993,0.57403 -2.75496,1.23531 -3.09089,2.44841 -0.93246,3.36729 -0.0841,8.11454 -0.0841,11.6141 v 25.4 8.99584 c 0,1.05516 -0.29743,2.67806 0.27193,3.61718 1.24021,2.04565 5.62305,3.53416 7.66557,4.74455 6.75945,4.0056 13.5774,7.91492 20.37292,11.85888 5.20691,3.02196 10.43809,6.01467 15.61042,9.09505 1.52949,0.91088 4.21928,3.23264 6.08541,2.78037 3.8066,-0.92253 7.97513,-4.51808 11.37709,-6.47105 8.66953,-4.97696 17.34041,-9.97969 25.92916,-15.09473 2.80566,-1.67091 5.63464,-3.3086 8.46667,-4.93441 0.99991,-0.57401 2.75497,-1.23532 3.0909,-2.44841 0.93245,-3.36727 0.0841,-8.11457 0.0841,-11.6141 v -25.4 -8.99583 c 0,-1.04128 0.30349,-2.68324 -0.27193,-3.60394 -1.2882,-2.06117 -5.59532,-3.53098 -7.66557,-4.7578 -6.75944,-4.00558 -13.5774,-7.91494 -20.37292,-11.85888 -5.20691,-3.02196 -10.43807,-6.01467 -15.61041,-9.095053 -1.5295,-0.910894 -4.21929,-3.23262 -6.08542,-2.78037 m 0.26458,8.715133 c 1.85549,-0.26904 4.80693,2.25322 6.35,3.16764 5.27022,3.12308 10.60486,6.13738 15.875,9.26041 4.56384,2.70449 9.15742,5.36187 13.75834,8.00284 1.62834,0.93468 4.75426,2.06402 5.81348,3.64046 0.74445,1.10796 0.27193,3.57561 0.27193,4.86581 v 12.7 16.66875 c 0,1.92772 0.6513,5.28383 -0.15964,7.04349 -0.43326,0.94011 -1.90136,1.5043 -2.75077,1.99194 -2.2967,1.31847 -4.60389,2.62719 -6.87917,3.98223 -7.28034,4.3358 -14.67065,8.48671 -21.96042,12.80657 -2.70203,1.60119 -6.67462,5.04252 -9.78958,5.49419 -1.85549,0.26904 -4.80693,-2.25324 -6.35,-3.16766 -5.27022,-3.12309 -10.60485,-6.13736 -15.875,-9.26041 -4.56314,-2.70408 -9.1583,-5.36208 -13.75833,-8.00284 -1.62838,-0.9348 -4.75424,-2.06396 -5.81349,-3.64046 -0.74445,-1.10796 -0.27193,-3.57561 -0.27193,-4.8658 v -12.7 -16.66875 c 0,-1.92775 -0.65132,-5.28384 0.15965,-7.04352 0.43323,-0.94006 1.90135,-1.50428 2.75077,-1.99192 2.38893,-1.37142 4.7548,-2.78269 7.14375,-4.15413 7.25568,-4.16532 14.49836,-8.36952 21.69583,-12.63467 2.70205,-1.60121 6.67461,-5.04252 9.78958,-5.49417 m -16.66875,25.76216 13.75834,39.95208 c 1.49511,0 4.94144,0.64515 6.16422,-0.27193 0.7562,-0.56717 0.95634,-2.05611 1.24492,-2.90307 0.81122,-2.38086 1.61193,-4.78773 2.49272,-7.14375 3.57217,-9.5552 7.90837,-19.70006 10.20647,-29.63333 h -5.02708 l -11.37709,34.13125 h -0.79375 c -1.92515,-8.32136 -5.38988,-16.88118 -8.41583,-24.87084 -0.93498,-2.46873 -1.42515,-6.90328 -3.24564,-8.83618 -0.90397,-0.9598 -3.7789,-0.42423 -5.00728,-0.42423 z"
   id="path1" />
   </g>
</svg>
