<?xml version="1.0" encoding="UTF-8" standalone="no" ?>
<!DOCTYPE svg PUBLIC "-//W3C//DTD SVG 1.1//EN" "http://www.w3.org/Graphics/SVG/1.1/DTD/svg11.dtd">
<svg xmlns="http://www.w3.org/2000/svg" xmlns:xlink="http://www.w3.org/1999/xlink" version="1.1" width="500" height="500" viewBox="125 205 375 220" xml:space="preserve">
<desc>Created with Fabric.js 5.2.4</desc>
<defs>
</defs>
<rect x="0" y="0" width="100%" height="100%" fill="transparent"></rect>
<g transform="matrix(1 0 0 1 250 250)" id="422b4df8-a427-48ff-8b19-ce00831e938a"  >
<rect style="stroke: none; stroke-width: 1; stroke-dasharray: none; stroke-linecap: butt; stroke-dashoffset: 0; stroke-linejoin: miter; stroke-miterlimit: 4; fill: rgb(255,255,255); fill-rule: nonzero; opacity: 1; visibility: hidden;" vector-effect="non-scaling-stroke"  x="-250" y="-250" rx="0" ry="0" width="500" height="500" />
</g>
<g transform="matrix(Infinity NaN NaN Infinity 0 0)" id="e654d824-b820-4719-8c55-c16ea7fdb926"  >
</g>
<g transform="matrix(0 -4.76 4.76 0 316.5 318.32)" id="2f6ed38c-aefa-43b6-b86b-cb7ebc2c58c9"  >
<polygon style="stroke: rgb(0,0,0); stroke-width: 0; stroke-dasharray: none; stroke-linecap: butt; stroke-dashoffset: 0; stroke-linejoin: miter; stroke-miterlimit: 4; fill: ; fill-rule: nonzero; opacity: 1;" vector-effect="non-scaling-stroke"  points="-18.54,32.11 -37.08,0 -18.54,-32.11 18.54,-32.11 37.08,0 18.54,32.11 " />
</g>
<g transform="matrix(3.51 0 0 3.51 317.1 316.93)"  >
<path style="stroke: rgb(0,0,0); stroke-width: 0; stroke-dasharray: none; stroke-linecap: butt; stroke-dashoffset: 0; stroke-linejoin: miter; stroke-miterlimit: 4; fill: rgb(100,255,218); fill-rule: nonzero; opacity: 1;" vector-effect="non-scaling-stroke"  transform=" translate(-152.66, -87.79)" d="M 152.12727 34.25804 C 148.32070000000002 35.180545 144.15211000000002 38.776127 140.75019 40.729092 C 132.08066 45.706063 123.40979 50.708783000000004 114.82102 55.823823000000004 C 112.01538000000001 57.494733000000004 109.18637000000001 59.132443 106.35435000000001 60.758233000000004 C 105.35442 61.332263000000005 103.59939000000001 61.993543 103.26346000000001 63.20664300000001 C 102.331 66.57393300000001 103.17936 71.321183 103.17936 74.82074300000001 L 103.17936 100.22074 L 103.17936 109.21658000000001 C 103.17936 110.27174000000001 102.88193 111.89464000000001 103.45129 112.83376000000001 C 104.6915 114.87941000000001 109.07434 116.36792000000001 111.11686 117.57831000000002 C 117.87631 121.58391000000002 124.69426 125.49323000000001 131.48978 129.43719000000002 C 136.69669 132.45915000000002 141.92786999999998 135.45186 147.1002 138.53224 C 148.62969 139.44312 151.31948 141.76488 153.18561 141.31261 C 156.99221 140.39008 161.16074 136.79453 164.5627 134.84156000000002 C 173.23223000000002 129.86460000000002 181.90311 124.86187000000001 190.49186 119.74683000000002 C 193.29752 118.07592000000001 196.1265 116.43823000000002 198.95853 114.81242000000002 C 199.95844 114.23841000000002 201.7135 113.57710000000002 202.04943 112.36401000000002 C 202.98188 108.99674000000002 202.13353 104.24944000000002 202.13353 100.74991000000003 L 202.13353 75.34991300000003 L 202.13353 66.35408300000003 C 202.13353 65.31280300000003 202.43702000000002 63.67084300000003 201.8616 62.75014300000003 C 200.57340000000002 60.68897300000003 196.26628000000002 59.21916300000003 194.19603 57.992343000000034 C 187.43659 53.98676300000003 180.61863 50.07740300000003 173.82311 46.133463000000035 C 168.61620000000002 43.111503000000035 163.38504 40.11879300000003 158.2127 37.038410000000034 C 156.6832 36.127516000000035 153.99341 33.80579000000004 152.12728 34.25804000000004 M 152.39186 42.97317300000004 C 154.24735 42.70413300000004 157.19879 45.22639300000004 158.74186 46.14081300000004 C 164.01208 49.26389300000004 169.34672 52.27819300000004 174.61686 55.40122300000004 C 179.1807 58.10571300000004 183.77428 60.76309300000004 188.3752 63.404063000000036 C 190.00354000000002 64.33874300000004 193.12946 65.46808300000004 194.18868 67.04452300000004 C 194.93313 68.15248300000005 194.46061 70.62013300000004 194.46061 71.91033300000004 L 194.46061 84.61033300000004 L 194.46061 101.27908000000004 C 194.46061 103.20680000000003 195.11191 106.56291000000003 194.30097 108.32257000000004 C 193.86771000000002 109.26268000000005 192.39961 109.82687000000004 191.55020000000002 110.31451000000004 C 189.25350000000003 111.63298000000005 186.94631 112.94170000000004 184.67103000000003 114.29674000000004 C 177.39069000000003 118.63254000000005 170.00038000000004 122.78345000000004 162.71061000000003 127.10331000000005 C 160.00858000000002 128.70450000000005 156.03599000000003 132.14583000000005 152.92103000000003 132.59750000000005 C 151.06554000000003 132.86654000000004 148.11410000000004 130.34426000000005 146.57103000000004 129.42984000000004 C 141.30081000000004 126.30675000000004 135.96618000000004 123.29248000000004 130.69603000000004 120.16943000000003 C 126.13289000000003 117.46535000000003 121.53773000000004 114.80735000000003 116.93770000000004 112.16659000000003 C 115.30932000000004 111.23179000000003 112.18346000000004 110.10263000000003 111.12421000000003 108.52613000000002 C 110.37976000000003 107.41817000000002 110.85228000000004 104.95052000000003 110.85228000000004 103.66033000000002 L 110.85228000000004 90.96033000000001 L 110.85228000000004 74.29158300000002 C 110.85228000000004 72.36383300000001 110.20096000000004 69.00774300000002 111.01193000000004 67.24806300000002 C 111.44516000000003 66.30800300000001 112.91328000000003 65.74378300000002 113.76270000000004 65.25614300000002 C 116.15163000000004 63.88472300000002 118.51750000000004 62.47345300000002 120.90645000000004 61.10201300000002 C 128.16213000000005 56.93669300000002 135.40481000000003 52.73249300000002 142.60228000000004 48.46734300000002 C 145.30433000000005 46.86613300000002 149.27689000000004 43.42482300000002 152.39186000000004 42.97317300000002 M 135.72311000000005 68.73533300000003 L 149.48145000000005 108.68741000000003 C 150.97656000000006 108.68741000000003 154.42289000000005 109.33256000000003 155.64567000000005 108.41548000000003 C 156.40187000000006 107.84831000000003 156.60201000000006 106.35937000000003 156.89059000000006 105.51241000000003 C 157.70181000000005 103.13155000000003 158.50252000000006 100.72468000000003 159.38331000000005 98.36866000000003 C 162.95548000000005 88.81346300000004 167.29168000000004 78.66860300000003 169.58978000000005 68.73533300000003 L 164.56270000000004 68.73533300000003 L 153.18561000000003 102.86658000000003 L 152.39186000000004 102.86658000000003 C 150.46671000000003 94.54522000000003 147.00198000000003 85.98540300000002 143.97603000000004 77.99574300000003 C 143.04105000000004 75.52701300000004 142.55088000000003 71.09246300000004 140.73039000000003 69.15956300000003 C 139.82642000000004 68.19976300000003 136.95149000000004 68.73533300000004 135.72311000000002 68.73533300000004 z" stroke-linecap="round" />
</g>
</svg>